<svg xmlns="http://www.w3.org/2000/svg" xmlns:xlink="http://www.w3.org/1999/xlink" width="500" zoomAndPan="magnify" viewBox="0 0 375 374.999991" height="500" preserveAspectRatio="xMidYMid meet" version="1.0"><defs><g/><clipPath id="id1"><path d="M 174.980469 133.269531 L 242.480469 133.269531 L 242.480469 200.769531 L 174.980469 200.769531 Z M 174.980469 133.269531 " clip-rule="nonzero"/></clipPath><clipPath id="id2"><path d="M 132.878906 133.269531 L 200.015625 133.269531 L 200.015625 200.769531 L 132.878906 200.769531 Z M 132.878906 133.269531 " clip-rule="nonzero"/></clipPath><clipPath id="id3"><path d="M 165 93 L 210 93 L 210 125 L 165 125 Z M 165 93 " clip-rule="nonzero"/></clipPath><clipPath id="id4"><path d="M 187.5 92.792969 L 209.773438 115.066406 L 187.5 137.339844 L 165.226562 115.066406 Z M 187.5 92.792969 " clip-rule="nonzero"/></clipPath><clipPath id="id5"><path d="M 187.5 137.820312 L 165.226562 115.546875 L 187.5 93.273438 L 209.773438 115.546875 Z M 187.5 137.820312 " clip-rule="nonzero"/></clipPath></defs><g clip-path="url(#id1)"><path fill="#ffbd59" d="M 242.480469 163.328125 L 242.480469 133.269531 C 205.199219 133.269531 174.980469 163.488281 174.980469 200.769531 L 205.035156 200.769531 C 205.035156 180.089844 221.800781 163.328125 242.480469 163.328125 Z M 242.480469 163.328125 " fill-opacity="1" fill-rule="nonzero"/></g><g clip-path="url(#id2)"><path fill="#ffde59" d="M 132.515625 163.328125 L 132.515625 133.269531 C 169.792969 133.269531 200.015625 163.488281 200.015625 200.769531 L 169.957031 200.769531 C 169.957031 180.089844 153.195312 163.328125 132.515625 163.328125 Z M 132.515625 163.328125 " fill-opacity="1" fill-rule="nonzero"/></g><g clip-path="url(#id3)"><g clip-path="url(#id4)"><g clip-path="url(#id5)"><path fill="#ff914d" d="M 165.226562 115.546875 C 177.527344 127.847656 197.472656 127.847656 209.773438 115.546875 L 187.5 93.273438 Z M 165.226562 115.546875 " fill-opacity="1" fill-rule="nonzero"/></g></g></g><g fill="#272727" fill-opacity="1"><g transform="translate(111.823986, 260.357414)"><g><path d="M 26.84375 -0.5625 C 25.988281 0.6875 25 1.742188 23.875 2.609375 C 22.757812 3.484375 21.425781 4.238281 19.875 4.875 C 18.539062 2.1875 17.164062 -0.175781 15.75 -2.21875 C 14.34375 -4.257812 12.664062 -6.289062 10.71875 -8.3125 C 10.664062 -8.289062 10.59375 -8.242188 10.5 -8.171875 C 10.40625 -8.109375 10.332031 -8.066406 10.28125 -8.046875 C 10.300781 -6.390625 10.378906 -4.703125 10.515625 -2.984375 C 10.648438 -1.265625 10.835938 0.472656 11.078125 2.234375 C 10.390625 2.453125 9.332031 2.640625 7.90625 2.796875 C 6.476562 2.960938 5.191406 3.046875 4.046875 3.046875 C 3.429688 -0.078125 2.96875 -3.390625 2.65625 -6.890625 C 2.351562 -10.398438 2.203125 -14 2.203125 -17.6875 C 2.203125 -19.125 2.226562 -20.601562 2.28125 -22.125 C 2.332031 -23.644531 2.410156 -25.203125 2.515625 -26.796875 C 3.160156 -27.222656 3.960938 -27.554688 4.921875 -27.796875 C 5.878906 -28.035156 6.863281 -28.15625 7.875 -28.15625 C 8.625 -28.15625 9.304688 -28.113281 9.921875 -28.03125 C 10.535156 -27.957031 11.148438 -27.84375 11.765625 -27.6875 C 11.390625 -25.6875 11.082031 -23.625 10.84375 -21.5 C 10.601562 -19.375 10.425781 -17.222656 10.3125 -15.046875 C 11.757812 -16.640625 13.085938 -18.457031 14.296875 -20.5 C 15.515625 -22.539062 16.828125 -25.175781 18.234375 -28.40625 C 19.410156 -28.03125 20.523438 -27.472656 21.578125 -26.734375 C 22.628906 -26.003906 23.664062 -25.039062 24.6875 -23.84375 C 23.40625 -21.550781 22.097656 -19.507812 20.765625 -17.71875 C 19.429688 -15.9375 17.988281 -14.320312 16.4375 -12.875 C 18.4375 -11.164062 20.242188 -9.351562 21.859375 -7.4375 C 23.472656 -5.519531 25.132812 -3.226562 26.84375 -0.5625 Z M 26.84375 -0.5625 "/></g></g></g><g fill="#272727" fill-opacity="1"><g transform="translate(137.941394, 260.357414)"><g><path d="M 10.234375 1.6875 C 9.546875 1.894531 8.515625 2.078125 7.140625 2.234375 C 5.765625 2.398438 4.519531 2.484375 3.40625 2.484375 C 3 -2.078125 2.660156 -7.257812 2.390625 -13.0625 C 2.128906 -18.863281 2 -23.945312 2 -28.3125 C 2.613281 -28.738281 3.378906 -29.070312 4.296875 -29.3125 C 5.222656 -29.5625 6.175781 -29.6875 7.15625 -29.6875 C 7.90625 -29.6875 8.585938 -29.644531 9.203125 -29.5625 C 9.816406 -29.476562 10.429688 -29.359375 11.046875 -29.203125 C 10.804688 -26.503906 10.609375 -22.234375 10.453125 -16.390625 C 10.304688 -10.554688 10.234375 -4.53125 10.234375 1.6875 Z M 10.234375 1.6875 "/></g></g></g><g fill="#272727" fill-opacity="1"><g transform="translate(150.580133, 260.357414)"><g><path d="M 20.640625 -14.3125 C 20.640625 -12.632812 20.410156 -10.347656 19.953125 -7.453125 C 19.503906 -4.566406 18.921875 -1.585938 18.203125 1.484375 C 17.265625 1.484375 16.257812 1.421875 15.1875 1.296875 C 14.125 1.179688 13.085938 1.015625 12.078125 0.796875 C 12.128906 0.347656 12.164062 0.00390625 12.1875 -0.234375 C 12.21875 -0.472656 12.25 -0.6875 12.28125 -0.875 C 11.71875 -0.632812 11.101562 -0.445312 10.4375 -0.3125 C 9.769531 -0.1875 9.050781 -0.125 8.28125 -0.125 C 6.0625 -0.125 4.285156 -0.675781 2.953125 -1.78125 C 1.617188 -2.882812 0.953125 -4.367188 0.953125 -6.234375 C 0.953125 -8.128906 1.71875 -9.550781 3.25 -10.5 C 4.789062 -11.445312 7.109375 -11.921875 10.203125 -11.921875 C 11.210938 -11.921875 11.890625 -11.921875 12.234375 -11.921875 C 12.585938 -11.921875 12.867188 -11.90625 13.078125 -11.875 C 13.054688 -14.382812 12.894531 -16.09375 12.59375 -17 C 12.300781 -17.90625 11.820312 -18.359375 11.15625 -18.359375 C 10.519531 -18.359375 9.96875 -17.925781 9.5 -17.0625 C 9.03125 -16.195312 8.785156 -15.097656 8.765625 -13.765625 C 7.054688 -13.765625 5.632812 -14.082031 4.5 -14.71875 C 3.363281 -15.363281 2.582031 -16.285156 2.15625 -17.484375 C 2.664062 -18.867188 3.8125 -20.050781 5.59375 -21.03125 C 7.382812 -22.019531 9.453125 -22.515625 11.796875 -22.515625 C 14.703125 -22.515625 16.898438 -21.820312 18.390625 -20.4375 C 19.890625 -19.050781 20.640625 -17.007812 20.640625 -14.3125 Z M 8.921875 -5.6875 C 8.921875 -5.070312 9.078125 -4.597656 9.390625 -4.265625 C 9.710938 -3.929688 10.179688 -3.765625 10.796875 -3.765625 C 11.171875 -3.765625 11.503906 -3.800781 11.796875 -3.875 C 12.085938 -3.957031 12.382812 -4.078125 12.6875 -4.234375 C 12.789062 -5.171875 12.859375 -5.976562 12.890625 -6.65625 C 12.929688 -7.34375 12.96875 -7.960938 13 -8.515625 C 11.613281 -8.441406 10.585938 -8.175781 9.921875 -7.71875 C 9.253906 -7.269531 8.921875 -6.59375 8.921875 -5.6875 Z M 8.921875 -5.6875 "/></g></g></g><g fill="#272727" fill-opacity="1"><g transform="translate(172.697933, 260.357414)"><g><path d="M 12.28125 -13.4375 C 14.675781 -12 16.28125 -10.707031 17.09375 -9.5625 C 17.90625 -8.414062 18.3125 -7.132812 18.3125 -5.71875 C 18.3125 -3.5625 17.378906 -1.769531 15.515625 -0.34375 C 13.648438 1.082031 11.375 1.796875 8.6875 1.796875 C 6.382812 1.796875 4.457031 1.101562 2.90625 -0.28125 C 1.363281 -1.664062 0.59375 -3.304688 0.59375 -5.203125 C 1.207031 -5.492188 2.019531 -5.738281 3.03125 -5.9375 C 4.050781 -6.132812 4.960938 -6.234375 5.765625 -6.234375 C 5.765625 -5.066406 6.007812 -4.117188 6.5 -3.390625 C 6.988281 -2.671875 7.6875 -2.3125 8.59375 -2.3125 C 9.257812 -2.3125 9.765625 -2.457031 10.109375 -2.75 C 10.460938 -3.050781 10.640625 -3.484375 10.640625 -4.046875 C 10.640625 -4.597656 10.414062 -5.140625 9.96875 -5.671875 C 9.53125 -6.210938 8.554688 -6.945312 7.046875 -7.875 C 4.773438 -9.289062 3.265625 -10.535156 2.515625 -11.609375 C 1.773438 -12.691406 1.40625 -13.914062 1.40625 -15.28125 C 1.40625 -17.414062 2.222656 -19.179688 3.859375 -20.578125 C 5.492188 -21.984375 7.59375 -22.6875 10.15625 -22.6875 C 12.6875 -22.6875 14.742188 -22.125 16.328125 -21 C 17.921875 -19.875 18.929688 -18.300781 19.359375 -16.28125 C 18.585938 -15.769531 17.707031 -15.375 16.71875 -15.09375 C 15.726562 -14.820312 14.4375 -14.628906 12.84375 -14.515625 C 12.65625 -15.773438 12.367188 -16.691406 11.984375 -17.265625 C 11.597656 -17.835938 11.070312 -18.125 10.40625 -18.125 C 9.945312 -18.125 9.585938 -17.988281 9.328125 -17.71875 C 9.078125 -17.445312 8.953125 -17.085938 8.953125 -16.640625 C 8.953125 -16.210938 9.148438 -15.78125 9.546875 -15.34375 C 9.953125 -14.90625 10.863281 -14.269531 12.28125 -13.4375 Z M 12.28125 -13.4375 "/></g></g></g><g fill="#272727" fill-opacity="1"><g transform="translate(192.655947, 260.357414)"><g><path d="M 12.28125 -13.4375 C 14.675781 -12 16.28125 -10.707031 17.09375 -9.5625 C 17.90625 -8.414062 18.3125 -7.132812 18.3125 -5.71875 C 18.3125 -3.5625 17.378906 -1.769531 15.515625 -0.34375 C 13.648438 1.082031 11.375 1.796875 8.6875 1.796875 C 6.382812 1.796875 4.457031 1.101562 2.90625 -0.28125 C 1.363281 -1.664062 0.59375 -3.304688 0.59375 -5.203125 C 1.207031 -5.492188 2.019531 -5.738281 3.03125 -5.9375 C 4.050781 -6.132812 4.960938 -6.234375 5.765625 -6.234375 C 5.765625 -5.066406 6.007812 -4.117188 6.5 -3.390625 C 6.988281 -2.671875 7.6875 -2.3125 8.59375 -2.3125 C 9.257812 -2.3125 9.765625 -2.457031 10.109375 -2.75 C 10.460938 -3.050781 10.640625 -3.484375 10.640625 -4.046875 C 10.640625 -4.597656 10.414062 -5.140625 9.96875 -5.671875 C 9.53125 -6.210938 8.554688 -6.945312 7.046875 -7.875 C 4.773438 -9.289062 3.265625 -10.535156 2.515625 -11.609375 C 1.773438 -12.691406 1.40625 -13.914062 1.40625 -15.28125 C 1.40625 -17.414062 2.222656 -19.179688 3.859375 -20.578125 C 5.492188 -21.984375 7.59375 -22.6875 10.15625 -22.6875 C 12.6875 -22.6875 14.742188 -22.125 16.328125 -21 C 17.921875 -19.875 18.929688 -18.300781 19.359375 -16.28125 C 18.585938 -15.769531 17.707031 -15.375 16.71875 -15.09375 C 15.726562 -14.820312 14.4375 -14.628906 12.84375 -14.515625 C 12.65625 -15.773438 12.367188 -16.691406 11.984375 -17.265625 C 11.597656 -17.835938 11.070312 -18.125 10.40625 -18.125 C 9.945312 -18.125 9.585938 -17.988281 9.328125 -17.71875 C 9.078125 -17.445312 8.953125 -17.085938 8.953125 -16.640625 C 8.953125 -16.210938 9.148438 -15.78125 9.546875 -15.34375 C 9.953125 -14.90625 10.863281 -14.269531 12.28125 -13.4375 Z M 12.28125 -13.4375 "/></g></g></g><g fill="#272727" fill-opacity="1"><g transform="translate(212.613961, 260.357414)"><g><path d="M 10.484375 -6.765625 L 10.484375 1 C 9.785156 1.207031 8.78125 1.390625 7.46875 1.546875 C 6.164062 1.710938 4.984375 1.796875 3.921875 1.796875 C 3.410156 -4.015625 3.03125 -9.300781 2.78125 -14.0625 C 2.53125 -18.820312 2.40625 -22.851562 2.40625 -26.15625 C 2.59375 -26.289062 2.738281 -26.382812 2.84375 -26.4375 C 2.945312 -26.488281 3.050781 -26.539062 3.15625 -26.59375 C 4.195312 -27.132812 5.394531 -27.570312 6.75 -27.90625 C 8.113281 -28.238281 9.53125 -28.429688 11 -28.484375 C 12.601562 -26.160156 14.007812 -23.882812 15.21875 -21.65625 C 16.4375 -19.425781 17.5625 -17.046875 18.59375 -14.515625 C 18.59375 -17.710938 18.523438 -20.554688 18.390625 -23.046875 C 18.265625 -25.546875 18.082031 -27.582031 17.84375 -29.15625 C 19.226562 -29.582031 20.597656 -29.910156 21.953125 -30.140625 C 23.316406 -30.367188 24.664062 -30.484375 26 -30.484375 C 26.082031 -28.960938 26.132812 -27.492188 26.15625 -26.078125 C 26.1875 -24.660156 26.203125 -23.285156 26.203125 -21.953125 C 26.203125 -18.679688 26.128906 -15.25 25.984375 -11.65625 C 25.835938 -8.070312 25.644531 -4.625 25.40625 -1.3125 C 23.75 -1.050781 22.378906 -0.859375 21.296875 -0.734375 C 20.222656 -0.617188 19.175781 -0.535156 18.15625 -0.484375 C 16.445312 -4.617188 15.039062 -7.8125 13.9375 -10.0625 C 12.832031 -12.3125 11.691406 -14.367188 10.515625 -16.234375 C 10.492188 -15.140625 10.484375 -13.929688 10.484375 -12.609375 C 10.484375 -11.296875 10.484375 -9.347656 10.484375 -6.765625 Z M 10.484375 -6.765625 "/></g></g></g><g fill="#272727" fill-opacity="1"><g transform="translate(241.011134, 260.357414)"><g><path d="M 1 -9.3125 C 1 -13.070312 2.082031 -16.144531 4.25 -18.53125 C 6.425781 -20.925781 9.25 -22.125 12.71875 -22.125 C 15.332031 -22.125 17.359375 -21.390625 18.796875 -19.921875 C 20.234375 -18.453125 20.953125 -16.375 20.953125 -13.6875 C 20.953125 -12 20.691406 -10.285156 20.171875 -8.546875 C 19.660156 -6.816406 18.9375 -5.316406 18 -4.046875 C 16.9375 -2.578125 15.660156 -1.46875 14.171875 -0.71875 C 12.691406 0.03125 11.019531 0.40625 9.15625 0.40625 C 6.570312 0.40625 4.566406 -0.46875 3.140625 -2.21875 C 1.710938 -3.96875 1 -6.332031 1 -9.3125 Z M 13 -11.484375 C 13 -13.554688 12.835938 -15.078125 12.515625 -16.046875 C 12.203125 -17.023438 11.695312 -17.515625 11 -17.515625 C 10.363281 -17.515625 9.835938 -16.859375 9.421875 -15.546875 C 9.003906 -14.242188 8.796875 -12.539062 8.796875 -10.4375 C 8.796875 -8.707031 8.984375 -7.234375 9.359375 -6.015625 C 9.734375 -4.804688 10.238281 -4.203125 10.875 -4.203125 C 11.539062 -4.203125 12.0625 -4.875 12.4375 -6.21875 C 12.8125 -7.5625 13 -9.316406 13 -11.484375 Z M 13 -11.484375 "/></g></g></g><g fill="#ffbd59" fill-opacity="1"><g transform="translate(136.653452, 280.957424)"><g><path d="M 8.109375 -3.140625 C 7.972656 -2.578125 7.578125 -1.9375 6.921875 -1.21875 C 6.835938 -1.1875 6.726562 -1.117188 6.59375 -1.015625 C 6.46875 -0.921875 6.300781 -0.820312 6.09375 -0.71875 C 5.882812 -0.625 5.628906 -0.539062 5.328125 -0.46875 C 5.023438 -0.394531 4.671875 -0.359375 4.265625 -0.359375 C 3.460938 -0.359375 2.785156 -0.570312 2.234375 -1 C 1.691406 -1.425781 1.269531 -2.109375 0.96875 -3.046875 C 0.957031 -3.117188 0.953125 -3.191406 0.953125 -3.265625 C 0.953125 -3.335938 0.953125 -3.414062 0.953125 -3.5 C 0.953125 -4.164062 1.019531 -4.75 1.15625 -5.25 C 1.300781 -5.757812 1.488281 -6.203125 1.71875 -6.578125 C 1.957031 -6.953125 2.226562 -7.265625 2.53125 -7.515625 C 2.832031 -7.773438 3.148438 -7.984375 3.484375 -8.140625 C 4.023438 -8.296875 4.5625 -8.375 5.09375 -8.375 C 5.457031 -8.375 5.820312 -8.273438 6.1875 -8.078125 C 6.550781 -7.890625 6.875 -7.617188 7.15625 -7.265625 C 7.4375 -6.910156 7.664062 -6.476562 7.84375 -5.96875 C 8.019531 -5.46875 8.117188 -4.894531 8.140625 -4.25 Z M 6.640625 -3.1875 C 6.710938 -3.625 6.75 -3.960938 6.75 -4.203125 C 6.75 -4.609375 6.691406 -4.984375 6.578125 -5.328125 C 6.460938 -5.671875 6.320312 -5.96875 6.15625 -6.21875 C 6 -6.46875 5.832031 -6.664062 5.65625 -6.8125 C 5.476562 -6.957031 5.332031 -7.03125 5.21875 -7.03125 C 4.65625 -7.03125 4.191406 -6.898438 3.828125 -6.640625 C 3.472656 -6.390625 3.191406 -6.085938 2.984375 -5.734375 C 2.785156 -5.390625 2.648438 -5.023438 2.578125 -4.640625 C 2.503906 -4.253906 2.46875 -3.925781 2.46875 -3.65625 C 2.46875 -3.414062 2.503906 -3.179688 2.578125 -2.953125 C 2.660156 -2.722656 2.78125 -2.519531 2.9375 -2.34375 C 3.09375 -2.164062 3.273438 -2.023438 3.484375 -1.921875 C 3.703125 -1.816406 3.945312 -1.765625 4.21875 -1.765625 C 4.875 -1.765625 5.382812 -1.882812 5.75 -2.125 C 6.125 -2.363281 6.421875 -2.71875 6.640625 -3.1875 Z M 6.640625 -3.1875 "/></g></g></g><g fill="#ffbd59" fill-opacity="1"><g transform="translate(146.123271, 280.957424)"><g><path d="M 8.25 -3.578125 L 8.25 -3.171875 C 8.25 -2.753906 8.234375 -2.347656 8.203125 -1.953125 L 8.203125 -1.734375 C 8.203125 -1.609375 8.191406 -1.472656 8.171875 -1.328125 C 8.148438 -1.191406 8.113281 -1.054688 8.0625 -0.921875 C 8.019531 -0.785156 7.953125 -0.671875 7.859375 -0.578125 C 7.773438 -0.492188 7.664062 -0.453125 7.53125 -0.453125 C 7.238281 -0.453125 6.988281 -0.550781 6.78125 -0.75 C 6.78125 -0.9375 6.394531 -1.492188 5.625 -2.421875 C 5.570312 -2.546875 5.476562 -2.710938 5.34375 -2.921875 C 5.21875 -3.128906 5.050781 -3.375 4.84375 -3.65625 C 4.789062 -3.707031 4.707031 -3.8125 4.59375 -3.96875 C 4.488281 -4.125 4.378906 -4.289062 4.265625 -4.46875 C 4.148438 -4.644531 4.050781 -4.800781 3.96875 -4.9375 C 3.894531 -5.082031 3.863281 -5.148438 3.875 -5.140625 C 3.789062 -5.222656 3.6875 -5.34375 3.5625 -5.5 C 3.445312 -5.65625 3.304688 -5.847656 3.140625 -6.078125 C 3.140625 -5.515625 3.113281 -5.191406 3.0625 -5.109375 C 3.050781 -4.984375 3.035156 -4.828125 3.015625 -4.640625 C 2.992188 -4.460938 2.972656 -4.273438 2.953125 -4.078125 C 2.941406 -3.878906 2.929688 -3.6875 2.921875 -3.5 C 2.910156 -3.3125 2.898438 -3.164062 2.890625 -3.0625 L 2.890625 -2.984375 C 2.890625 -2.898438 2.867188 -2.769531 2.828125 -2.59375 C 2.796875 -2.425781 2.753906 -2.25 2.703125 -2.0625 C 2.660156 -1.882812 2.617188 -1.71875 2.578125 -1.5625 C 2.535156 -1.414062 2.515625 -1.332031 2.515625 -1.3125 C 2.347656 -0.957031 2.097656 -0.78125 1.765625 -0.78125 C 1.421875 -0.78125 1.207031 -1 1.125 -1.4375 C 1.195312 -1.863281 1.304688 -2.566406 1.453125 -3.546875 C 1.460938 -3.742188 1.476562 -3.992188 1.5 -4.296875 C 1.53125 -4.609375 1.570312 -4.988281 1.625 -5.4375 C 1.644531 -5.539062 1.664062 -5.71875 1.6875 -5.96875 C 1.71875 -6.21875 1.742188 -6.476562 1.765625 -6.75 C 1.796875 -7.019531 1.828125 -7.273438 1.859375 -7.515625 C 1.890625 -7.765625 1.921875 -7.941406 1.953125 -8.046875 C 2.179688 -8.347656 2.503906 -8.5 2.921875 -8.5 C 2.984375 -8.476562 3.054688 -8.414062 3.140625 -8.3125 C 3.234375 -8.21875 3.332031 -8.101562 3.4375 -7.96875 C 3.539062 -7.84375 3.648438 -7.703125 3.765625 -7.546875 C 3.890625 -7.390625 4 -7.234375 4.09375 -7.078125 C 4.207031 -6.929688 4.363281 -6.734375 4.5625 -6.484375 C 4.757812 -6.234375 4.984375 -5.945312 5.234375 -5.625 C 5.484375 -5.300781 5.742188 -4.945312 6.015625 -4.5625 C 6.296875 -4.175781 6.5625 -3.773438 6.8125 -3.359375 L 6.8125 -3.796875 C 6.8125 -4.191406 6.796875 -4.476562 6.765625 -4.65625 C 6.785156 -4.71875 6.796875 -4.785156 6.796875 -4.859375 C 6.796875 -4.878906 6.785156 -4.945312 6.765625 -5.0625 C 6.753906 -5.175781 6.738281 -5.300781 6.71875 -5.4375 C 6.707031 -5.582031 6.691406 -5.722656 6.671875 -5.859375 C 6.660156 -6.003906 6.65625 -6.113281 6.65625 -6.1875 C 6.65625 -6.207031 6.65625 -6.222656 6.65625 -6.234375 C 6.664062 -6.253906 6.671875 -6.273438 6.671875 -6.296875 C 6.640625 -6.773438 6.609375 -7.171875 6.578125 -7.484375 C 6.546875 -7.796875 6.507812 -8.035156 6.46875 -8.203125 C 6.582031 -8.742188 6.816406 -9.015625 7.171875 -9.015625 C 7.523438 -9.015625 7.78125 -8.835938 7.9375 -8.484375 C 7.957031 -8.109375 7.988281 -7.679688 8.03125 -7.203125 C 8.070312 -6.722656 8.128906 -6.1875 8.203125 -5.59375 Z M 8.25 -3.578125 "/></g></g></g><g fill="#ffbd59" fill-opacity="1"><g transform="translate(156.232941, 280.957424)"><g><path d="M 5.890625 -1.96875 C 6.203125 -1.90625 6.359375 -1.664062 6.359375 -1.25 C 6.359375 -1.019531 6.300781 -0.84375 6.1875 -0.71875 C 6.082031 -0.59375 5.945312 -0.53125 5.78125 -0.53125 C 5.726562 -0.53125 5.625 -0.535156 5.46875 -0.546875 C 5.320312 -0.566406 5.160156 -0.582031 4.984375 -0.59375 C 4.816406 -0.613281 4.648438 -0.628906 4.484375 -0.640625 C 4.328125 -0.660156 4.21875 -0.671875 4.15625 -0.671875 C 4.09375 -0.671875 4.035156 -0.671875 3.984375 -0.671875 C 3.929688 -0.671875 3.878906 -0.664062 3.828125 -0.65625 C 3.640625 -0.664062 3.425781 -0.6875 3.1875 -0.71875 C 2.945312 -0.757812 2.710938 -0.800781 2.484375 -0.84375 C 2.253906 -0.894531 2.050781 -0.945312 1.875 -1 C 1.695312 -1.0625 1.59375 -1.113281 1.5625 -1.15625 C 1.457031 -1.46875 1.40625 -1.894531 1.40625 -2.4375 C 1.40625 -2.519531 1.40625 -2.601562 1.40625 -2.6875 C 1.40625 -2.78125 1.410156 -2.875 1.421875 -2.96875 L 1.515625 -4.109375 C 1.523438 -4.191406 1.53125 -4.273438 1.53125 -4.359375 C 1.53125 -4.441406 1.53125 -4.515625 1.53125 -4.578125 C 1.53125 -4.660156 1.53125 -4.726562 1.53125 -4.78125 C 1.53125 -4.84375 1.519531 -4.898438 1.5 -4.953125 C 1.570312 -5.359375 1.625 -5.695312 1.65625 -5.96875 C 1.695312 -6.25 1.71875 -6.460938 1.71875 -6.609375 L 1.71875 -6.734375 C 1.71875 -6.878906 1.78125 -7.351562 1.90625 -8.15625 C 2.0625 -8.5 2.304688 -8.671875 2.640625 -8.671875 C 2.835938 -8.671875 3.003906 -8.59375 3.140625 -8.4375 C 3.285156 -8.28125 3.359375 -8.070312 3.359375 -7.8125 C 3.316406 -7.65625 3.273438 -7.460938 3.234375 -7.234375 C 3.203125 -7.015625 3.171875 -6.753906 3.140625 -6.453125 L 3.140625 -6.3125 C 3.140625 -6.21875 3.128906 -6.070312 3.109375 -5.875 C 3.097656 -5.675781 3.082031 -5.472656 3.0625 -5.265625 C 3.039062 -5.054688 3.019531 -4.867188 3 -4.703125 C 2.976562 -4.546875 2.96875 -4.457031 2.96875 -4.4375 C 2.96875 -4.3125 2.972656 -4.234375 2.984375 -4.203125 C 2.941406 -3.753906 2.910156 -3.378906 2.890625 -3.078125 C 2.867188 -2.785156 2.859375 -2.5625 2.859375 -2.40625 C 2.859375 -2.289062 2.863281 -2.21875 2.875 -2.1875 C 3.4375 -2.125 3.804688 -2.09375 3.984375 -2.09375 C 4.066406 -2.09375 4.15625 -2.09375 4.25 -2.09375 C 4.34375 -2.101562 4.4375 -2.109375 4.53125 -2.109375 C 4.9375 -2.109375 5.390625 -2.0625 5.890625 -1.96875 Z M 5.890625 -1.96875 "/></g></g></g><g fill="#ffbd59" fill-opacity="1"><g transform="translate(163.78322, 280.957424)"><g><path d="M 4.3125 -0.375 C 4.28125 -0.3125 4.222656 -0.257812 4.140625 -0.21875 C 4.054688 -0.1875 3.96875 -0.160156 3.875 -0.140625 C 3.789062 -0.128906 3.707031 -0.117188 3.625 -0.109375 C 3.539062 -0.0976562 3.492188 -0.0859375 3.484375 -0.078125 C 3.347656 -0.0664062 3.1875 -0.0546875 3 -0.046875 C 2.820312 -0.0351562 2.613281 -0.0195312 2.375 0 C 2.332031 -0.0078125 2.285156 -0.015625 2.234375 -0.015625 C 2.191406 -0.015625 2.128906 -0.00390625 2.046875 0.015625 C 1.960938 0.0351562 1.894531 0.046875 1.84375 0.046875 C 1.488281 0.046875 1.3125 -0.15625 1.3125 -0.5625 C 1.3125 -0.875 1.40625 -1.085938 1.59375 -1.203125 L 2.265625 -1.421875 C 2.265625 -1.710938 2.300781 -2.125 2.375 -2.65625 C 2.363281 -2.707031 2.351562 -2.765625 2.34375 -2.828125 C 2.34375 -2.898438 2.34375 -2.984375 2.34375 -3.078125 C 2.34375 -3.441406 2.351562 -3.722656 2.375 -3.921875 C 2.394531 -4.128906 2.40625 -4.242188 2.40625 -4.265625 C 2.40625 -4.367188 2.398438 -4.476562 2.390625 -4.59375 C 2.390625 -4.71875 2.378906 -4.882812 2.359375 -5.09375 C 2.347656 -5.300781 2.328125 -5.5625 2.296875 -5.875 C 2.265625 -6.1875 2.234375 -6.566406 2.203125 -7.015625 L 1.640625 -7.09375 C 1.484375 -7.34375 1.40625 -7.570312 1.40625 -7.78125 C 1.40625 -7.894531 1.421875 -7.988281 1.453125 -8.0625 C 1.484375 -8.144531 1.546875 -8.210938 1.640625 -8.265625 C 1.734375 -8.328125 1.859375 -8.367188 2.015625 -8.390625 C 2.179688 -8.410156 2.398438 -8.421875 2.671875 -8.421875 C 2.804688 -8.421875 2.929688 -8.410156 3.046875 -8.390625 C 3.171875 -8.367188 3.273438 -8.34375 3.359375 -8.3125 C 3.617188 -8.3125 3.828125 -8.300781 3.984375 -8.28125 C 4.140625 -8.269531 4.257812 -8.238281 4.34375 -8.1875 C 4.425781 -8.144531 4.476562 -8.082031 4.5 -8 C 4.53125 -7.925781 4.546875 -7.828125 4.546875 -7.703125 C 4.546875 -7.429688 4.425781 -7.179688 4.1875 -6.953125 C 4.144531 -6.941406 3.953125 -6.9375 3.609375 -6.9375 C 3.617188 -6.78125 3.628906 -6.644531 3.640625 -6.53125 C 3.648438 -6.414062 3.664062 -6.265625 3.6875 -6.078125 C 3.707031 -5.890625 3.722656 -5.640625 3.734375 -5.328125 C 3.742188 -5.023438 3.753906 -4.613281 3.765625 -4.09375 C 3.765625 -3.851562 3.757812 -3.644531 3.75 -3.46875 C 3.75 -3.289062 3.75 -3.128906 3.75 -2.984375 C 3.75 -2.710938 3.753906 -2.5625 3.765625 -2.53125 L 3.703125 -1.46875 C 4.003906 -1.425781 4.210938 -1.351562 4.328125 -1.25 C 4.441406 -1.144531 4.5 -0.984375 4.5 -0.765625 C 4.5 -0.617188 4.4375 -0.488281 4.3125 -0.375 Z M 4.3125 -0.375 "/></g></g></g><g fill="#ffbd59" fill-opacity="1"><g transform="translate(170.341743, 280.957424)"><g><path d="M 8.25 -3.578125 L 8.25 -3.171875 C 8.25 -2.753906 8.234375 -2.347656 8.203125 -1.953125 L 8.203125 -1.734375 C 8.203125 -1.609375 8.191406 -1.472656 8.171875 -1.328125 C 8.148438 -1.191406 8.113281 -1.054688 8.0625 -0.921875 C 8.019531 -0.785156 7.953125 -0.671875 7.859375 -0.578125 C 7.773438 -0.492188 7.664062 -0.453125 7.53125 -0.453125 C 7.238281 -0.453125 6.988281 -0.550781 6.78125 -0.75 C 6.78125 -0.9375 6.394531 -1.492188 5.625 -2.421875 C 5.570312 -2.546875 5.476562 -2.710938 5.34375 -2.921875 C 5.21875 -3.128906 5.050781 -3.375 4.84375 -3.65625 C 4.789062 -3.707031 4.707031 -3.8125 4.59375 -3.96875 C 4.488281 -4.125 4.378906 -4.289062 4.265625 -4.46875 C 4.148438 -4.644531 4.050781 -4.800781 3.96875 -4.9375 C 3.894531 -5.082031 3.863281 -5.148438 3.875 -5.140625 C 3.789062 -5.222656 3.6875 -5.34375 3.5625 -5.5 C 3.445312 -5.65625 3.304688 -5.847656 3.140625 -6.078125 C 3.140625 -5.515625 3.113281 -5.191406 3.0625 -5.109375 C 3.050781 -4.984375 3.035156 -4.828125 3.015625 -4.640625 C 2.992188 -4.460938 2.972656 -4.273438 2.953125 -4.078125 C 2.941406 -3.878906 2.929688 -3.6875 2.921875 -3.5 C 2.910156 -3.3125 2.898438 -3.164062 2.890625 -3.0625 L 2.890625 -2.984375 C 2.890625 -2.898438 2.867188 -2.769531 2.828125 -2.59375 C 2.796875 -2.425781 2.753906 -2.25 2.703125 -2.0625 C 2.660156 -1.882812 2.617188 -1.71875 2.578125 -1.5625 C 2.535156 -1.414062 2.515625 -1.332031 2.515625 -1.3125 C 2.347656 -0.957031 2.097656 -0.78125 1.765625 -0.78125 C 1.421875 -0.78125 1.207031 -1 1.125 -1.4375 C 1.195312 -1.863281 1.304688 -2.566406 1.453125 -3.546875 C 1.460938 -3.742188 1.476562 -3.992188 1.5 -4.296875 C 1.53125 -4.609375 1.570312 -4.988281 1.625 -5.4375 C 1.644531 -5.539062 1.664062 -5.71875 1.6875 -5.96875 C 1.71875 -6.21875 1.742188 -6.476562 1.765625 -6.75 C 1.796875 -7.019531 1.828125 -7.273438 1.859375 -7.515625 C 1.890625 -7.765625 1.921875 -7.941406 1.953125 -8.046875 C 2.179688 -8.347656 2.503906 -8.5 2.921875 -8.5 C 2.984375 -8.476562 3.054688 -8.414062 3.140625 -8.3125 C 3.234375 -8.21875 3.332031 -8.101562 3.4375 -7.96875 C 3.539062 -7.84375 3.648438 -7.703125 3.765625 -7.546875 C 3.890625 -7.390625 4 -7.234375 4.09375 -7.078125 C 4.207031 -6.929688 4.363281 -6.734375 4.5625 -6.484375 C 4.757812 -6.234375 4.984375 -5.945312 5.234375 -5.625 C 5.484375 -5.300781 5.742188 -4.945312 6.015625 -4.5625 C 6.296875 -4.175781 6.5625 -3.773438 6.8125 -3.359375 L 6.8125 -3.796875 C 6.8125 -4.191406 6.796875 -4.476562 6.765625 -4.65625 C 6.785156 -4.71875 6.796875 -4.785156 6.796875 -4.859375 C 6.796875 -4.878906 6.785156 -4.945312 6.765625 -5.0625 C 6.753906 -5.175781 6.738281 -5.300781 6.71875 -5.4375 C 6.707031 -5.582031 6.691406 -5.722656 6.671875 -5.859375 C 6.660156 -6.003906 6.65625 -6.113281 6.65625 -6.1875 C 6.65625 -6.207031 6.65625 -6.222656 6.65625 -6.234375 C 6.664062 -6.253906 6.671875 -6.273438 6.671875 -6.296875 C 6.640625 -6.773438 6.609375 -7.171875 6.578125 -7.484375 C 6.546875 -7.796875 6.507812 -8.035156 6.46875 -8.203125 C 6.582031 -8.742188 6.816406 -9.015625 7.171875 -9.015625 C 7.523438 -9.015625 7.78125 -8.835938 7.9375 -8.484375 C 7.957031 -8.109375 7.988281 -7.679688 8.03125 -7.203125 C 8.070312 -6.722656 8.128906 -6.1875 8.203125 -5.59375 Z M 8.25 -3.578125 "/></g></g></g><g fill="#ffbd59" fill-opacity="1"><g transform="translate(180.451413, 280.957424)"><g><path d="M 6.890625 -1.125 C 7.242188 -0.9375 7.421875 -0.675781 7.421875 -0.34375 C 7.421875 -0.113281 7.363281 0.046875 7.25 0.140625 C 7.144531 0.234375 6.988281 0.300781 6.78125 0.34375 C 6.570312 0.382812 6.3125 0.40625 6 0.40625 C 5.6875 0.414062 5.335938 0.429688 4.953125 0.453125 C 4.828125 0.410156 4.359375 0.363281 3.546875 0.3125 C 3.429688 0.332031 3.320312 0.34375 3.21875 0.34375 C 3.113281 0.351562 3.007812 0.359375 2.90625 0.359375 C 2.332031 0.359375 1.941406 0.269531 1.734375 0.09375 C 1.671875 -0.332031 1.625 -0.722656 1.59375 -1.078125 C 1.570312 -1.441406 1.5625 -1.773438 1.5625 -2.078125 C 1.5625 -2.546875 1.582031 -2.953125 1.625 -3.296875 C 1.664062 -3.648438 1.6875 -3.960938 1.6875 -4.234375 C 1.6875 -4.578125 1.664062 -4.847656 1.625 -5.046875 L 1.734375 -6.71875 C 1.773438 -7.125 1.820312 -7.46875 1.875 -7.75 C 1.9375 -8.039062 2.007812 -8.265625 2.09375 -8.421875 C 2.15625 -8.503906 2.476562 -8.609375 3.0625 -8.734375 L 4.078125 -8.953125 C 4.140625 -8.960938 4.269531 -8.976562 4.46875 -9 C 4.675781 -9.03125 4.890625 -9.054688 5.109375 -9.078125 C 5.328125 -9.097656 5.519531 -9.113281 5.6875 -9.125 C 5.863281 -9.132812 5.945312 -9.140625 5.9375 -9.140625 L 6 -9.140625 C 6.113281 -9.140625 6.234375 -9.054688 6.359375 -8.890625 C 6.484375 -8.734375 6.546875 -8.550781 6.546875 -8.34375 C 6.546875 -8.226562 6.539062 -8.128906 6.53125 -8.046875 C 6.53125 -7.960938 6.5 -7.890625 6.4375 -7.828125 C 6.375 -7.773438 6.265625 -7.726562 6.109375 -7.6875 C 5.960938 -7.65625 5.742188 -7.632812 5.453125 -7.625 C 4.984375 -7.601562 4.664062 -7.554688 4.5 -7.484375 L 4.421875 -7.484375 C 4.140625 -7.484375 3.789062 -7.421875 3.375 -7.296875 C 3.332031 -7.242188 3.300781 -7.148438 3.28125 -7.015625 C 3.257812 -6.878906 3.242188 -6.738281 3.234375 -6.59375 C 3.222656 -6.457031 3.210938 -6.335938 3.203125 -6.234375 C 3.203125 -6.128906 3.203125 -6.09375 3.203125 -6.125 C 3.191406 -6.070312 3.179688 -6.019531 3.171875 -5.96875 C 3.171875 -5.914062 3.171875 -5.847656 3.171875 -5.765625 C 3.171875 -5.679688 3.171875 -5.59375 3.171875 -5.5 C 3.179688 -5.414062 3.191406 -5.320312 3.203125 -5.21875 C 3.535156 -5.25 3.800781 -5.28125 4 -5.3125 C 4.207031 -5.351562 4.375 -5.375 4.5 -5.375 C 4.71875 -5.375 4.929688 -5.378906 5.140625 -5.390625 C 5.359375 -5.398438 5.550781 -5.382812 5.71875 -5.34375 C 5.882812 -5.3125 6.015625 -5.238281 6.109375 -5.125 C 6.203125 -5.007812 6.25 -4.832031 6.25 -4.59375 C 6.25 -4.3125 6.160156 -4.128906 5.984375 -4.046875 C 5.816406 -3.960938 5.515625 -3.914062 5.078125 -3.90625 C 4.554688 -3.882812 4.242188 -3.863281 4.140625 -3.84375 C 4.078125 -3.84375 4.007812 -3.84375 3.9375 -3.84375 C 3.875 -3.851562 3.800781 -3.859375 3.71875 -3.859375 C 3.65625 -3.859375 3.585938 -3.859375 3.515625 -3.859375 C 3.453125 -3.867188 3.390625 -3.867188 3.328125 -3.859375 C 3.265625 -3.859375 3.207031 -3.835938 3.15625 -3.796875 C 3.113281 -3.765625 3.09375 -3.695312 3.09375 -3.59375 C 3.09375 -3.53125 3.09375 -3.445312 3.09375 -3.34375 C 3.101562 -3.25 3.109375 -3.160156 3.109375 -3.078125 C 3.109375 -2.941406 3.101562 -2.8125 3.09375 -2.6875 C 3.09375 -2.5625 3.085938 -2.425781 3.078125 -2.28125 C 3.078125 -2.132812 3.070312 -1.96875 3.0625 -1.78125 C 3.0625 -1.601562 3.0625 -1.394531 3.0625 -1.15625 C 3.125 -1.144531 3.25 -1.132812 3.4375 -1.125 C 3.625 -1.113281 3.820312 -1.101562 4.03125 -1.09375 C 4.238281 -1.082031 4.4375 -1.066406 4.625 -1.046875 C 4.8125 -1.035156 4.941406 -1.023438 5.015625 -1.015625 C 5.023438 -1.015625 5.097656 -1.019531 5.234375 -1.03125 C 5.367188 -1.039062 5.570312 -1.054688 5.84375 -1.078125 C 6.207031 -1.109375 6.492188 -1.125 6.703125 -1.125 Z M 6.890625 -1.125 "/></g></g></g><g fill="#ffbd59" fill-opacity="1"><g transform="translate(188.737513, 280.957424)"><g/></g></g><g fill="#ffbd59" fill-opacity="1"><g transform="translate(195.855904, 280.957424)"><g><path d="M 7.78125 -2.15625 C 7.75 -2.03125 7.671875 -1.875 7.546875 -1.6875 C 7.421875 -1.507812 7.265625 -1.328125 7.078125 -1.140625 C 6.898438 -0.953125 6.707031 -0.785156 6.5 -0.640625 C 6.289062 -0.492188 6.09375 -0.382812 5.90625 -0.3125 C 5.351562 -0.0703125 4.726562 0.046875 4.03125 0.046875 C 3.8125 0.046875 3.617188 0.0390625 3.453125 0.03125 C 3.285156 0.0195312 3.117188 -0.0078125 2.953125 -0.0625 C 2.796875 -0.113281 2.632812 -0.195312 2.46875 -0.3125 C 2.3125 -0.4375 2.132812 -0.609375 1.9375 -0.828125 C 1.707031 -1.066406 1.53125 -1.300781 1.40625 -1.53125 C 1.28125 -1.757812 1.1875 -1.976562 1.125 -2.1875 C 1.0625 -2.40625 1.015625 -2.613281 0.984375 -2.8125 C 0.960938 -3.007812 0.953125 -3.1875 0.953125 -3.34375 C 0.953125 -3.695312 0.992188 -4.113281 1.078125 -4.59375 C 1.171875 -5.070312 1.40625 -5.660156 1.78125 -6.359375 C 1.914062 -6.609375 2.019531 -6.804688 2.09375 -6.953125 C 2.164062 -7.109375 2.207031 -7.210938 2.21875 -7.265625 L 3.21875 -7.875 C 3.5625 -8.070312 3.882812 -8.234375 4.1875 -8.359375 C 4.5 -8.484375 4.84375 -8.546875 5.21875 -8.546875 C 5.320312 -8.546875 5.476562 -8.546875 5.6875 -8.546875 C 5.90625 -8.546875 6.117188 -8.519531 6.328125 -8.46875 C 6.535156 -8.425781 6.71875 -8.34375 6.875 -8.21875 C 7.039062 -8.09375 7.125 -7.914062 7.125 -7.6875 C 7.125 -7.289062 6.890625 -7.054688 6.421875 -6.984375 C 6.429688 -6.984375 6.394531 -6.988281 6.3125 -7 C 6.238281 -7.019531 6.140625 -7.035156 6.015625 -7.046875 C 5.890625 -7.054688 5.742188 -7.066406 5.578125 -7.078125 C 5.421875 -7.085938 5.265625 -7.09375 5.109375 -7.09375 C 4.828125 -7.09375 4.546875 -7.015625 4.265625 -6.859375 C 3.984375 -6.703125 3.640625 -6.4375 3.234375 -6.0625 C 3.015625 -5.613281 2.851562 -5.265625 2.75 -5.015625 C 2.65625 -4.765625 2.609375 -4.597656 2.609375 -4.515625 C 2.492188 -4.296875 2.4375 -3.976562 2.4375 -3.5625 C 2.4375 -2.800781 2.570312 -2.25 2.84375 -1.90625 C 3.125 -1.570312 3.503906 -1.40625 3.984375 -1.40625 C 4.296875 -1.40625 4.773438 -1.488281 5.421875 -1.65625 C 5.816406 -1.894531 6.160156 -2.269531 6.453125 -2.78125 C 6.628906 -2.96875 6.816406 -3.0625 7.015625 -3.0625 C 7.210938 -3.0625 7.390625 -2.976562 7.546875 -2.8125 C 7.710938 -2.65625 7.796875 -2.472656 7.796875 -2.265625 C 7.796875 -2.242188 7.789062 -2.222656 7.78125 -2.203125 C 7.78125 -2.191406 7.78125 -2.175781 7.78125 -2.15625 Z M 7.78125 -2.15625 "/></g></g></g><g fill="#ffbd59" fill-opacity="1"><g transform="translate(205.005803, 280.957424)"><g><path d="M 5.890625 -1.96875 C 6.203125 -1.90625 6.359375 -1.664062 6.359375 -1.25 C 6.359375 -1.019531 6.300781 -0.84375 6.1875 -0.71875 C 6.082031 -0.59375 5.945312 -0.53125 5.78125 -0.53125 C 5.726562 -0.53125 5.625 -0.535156 5.46875 -0.546875 C 5.320312 -0.566406 5.160156 -0.582031 4.984375 -0.59375 C 4.816406 -0.613281 4.648438 -0.628906 4.484375 -0.640625 C 4.328125 -0.660156 4.21875 -0.671875 4.15625 -0.671875 C 4.09375 -0.671875 4.035156 -0.671875 3.984375 -0.671875 C 3.929688 -0.671875 3.878906 -0.664062 3.828125 -0.65625 C 3.640625 -0.664062 3.425781 -0.6875 3.1875 -0.71875 C 2.945312 -0.757812 2.710938 -0.800781 2.484375 -0.84375 C 2.253906 -0.894531 2.050781 -0.945312 1.875 -1 C 1.695312 -1.0625 1.59375 -1.113281 1.5625 -1.15625 C 1.457031 -1.46875 1.40625 -1.894531 1.40625 -2.4375 C 1.40625 -2.519531 1.40625 -2.601562 1.40625 -2.6875 C 1.40625 -2.78125 1.410156 -2.875 1.421875 -2.96875 L 1.515625 -4.109375 C 1.523438 -4.191406 1.53125 -4.273438 1.53125 -4.359375 C 1.53125 -4.441406 1.53125 -4.515625 1.53125 -4.578125 C 1.53125 -4.660156 1.53125 -4.726562 1.53125 -4.78125 C 1.53125 -4.84375 1.519531 -4.898438 1.5 -4.953125 C 1.570312 -5.359375 1.625 -5.695312 1.65625 -5.96875 C 1.695312 -6.25 1.71875 -6.460938 1.71875 -6.609375 L 1.71875 -6.734375 C 1.71875 -6.878906 1.78125 -7.351562 1.90625 -8.15625 C 2.0625 -8.5 2.304688 -8.671875 2.640625 -8.671875 C 2.835938 -8.671875 3.003906 -8.59375 3.140625 -8.4375 C 3.285156 -8.28125 3.359375 -8.070312 3.359375 -7.8125 C 3.316406 -7.65625 3.273438 -7.460938 3.234375 -7.234375 C 3.203125 -7.015625 3.171875 -6.753906 3.140625 -6.453125 L 3.140625 -6.3125 C 3.140625 -6.21875 3.128906 -6.070312 3.109375 -5.875 C 3.097656 -5.675781 3.082031 -5.472656 3.0625 -5.265625 C 3.039062 -5.054688 3.019531 -4.867188 3 -4.703125 C 2.976562 -4.546875 2.96875 -4.457031 2.96875 -4.4375 C 2.96875 -4.3125 2.972656 -4.234375 2.984375 -4.203125 C 2.941406 -3.753906 2.910156 -3.378906 2.890625 -3.078125 C 2.867188 -2.785156 2.859375 -2.5625 2.859375 -2.40625 C 2.859375 -2.289062 2.863281 -2.21875 2.875 -2.1875 C 3.4375 -2.125 3.804688 -2.09375 3.984375 -2.09375 C 4.066406 -2.09375 4.15625 -2.09375 4.25 -2.09375 C 4.34375 -2.101562 4.4375 -2.109375 4.53125 -2.109375 C 4.9375 -2.109375 5.390625 -2.0625 5.890625 -1.96875 Z M 5.890625 -1.96875 "/></g></g></g><g fill="#ffbd59" fill-opacity="1"><g transform="translate(212.556082, 280.957424)"><g><path d="M 7.921875 0.140625 C 7.878906 0.347656 7.679688 0.453125 7.328125 0.453125 C 7.035156 0.453125 6.828125 0.382812 6.703125 0.25 C 6.648438 0.0703125 6.578125 -0.144531 6.484375 -0.40625 C 6.390625 -0.664062 6.273438 -0.96875 6.140625 -1.3125 C 6.078125 -1.726562 6.015625 -2.019531 5.953125 -2.1875 C 5.898438 -2.363281 5.832031 -2.492188 5.75 -2.578125 C 5.582031 -2.566406 5.347656 -2.546875 5.046875 -2.515625 C 4.753906 -2.492188 4.441406 -2.460938 4.109375 -2.421875 C 3.773438 -2.390625 3.460938 -2.34375 3.171875 -2.28125 C 2.890625 -2.21875 2.6875 -2.15625 2.5625 -2.09375 C 2.507812 -1.832031 2.441406 -1.539062 2.359375 -1.21875 C 2.285156 -0.894531 2.195312 -0.550781 2.09375 -0.1875 C 2.0625 -0.0820312 1.988281 -0.0078125 1.875 0.03125 C 1.757812 0.0820312 1.613281 0.109375 1.4375 0.109375 C 1.269531 0.109375 1.125 0.078125 1 0.015625 C 0.875 -0.0351562 0.8125 -0.117188 0.8125 -0.234375 C 0.8125 -0.453125 0.941406 -1.085938 1.203125 -2.140625 C 1.191406 -2.179688 1.1875 -2.25 1.1875 -2.34375 C 1.1875 -2.476562 1.203125 -2.648438 1.234375 -2.859375 C 1.273438 -3.066406 1.316406 -3.265625 1.359375 -3.453125 C 1.398438 -3.648438 1.4375 -3.816406 1.46875 -3.953125 C 1.507812 -4.085938 1.53125 -4.160156 1.53125 -4.171875 L 2.046875 -5.59375 C 2.066406 -5.738281 2.125 -5.925781 2.21875 -6.15625 C 2.3125 -6.394531 2.410156 -6.632812 2.515625 -6.875 C 2.617188 -7.125 2.71875 -7.359375 2.8125 -7.578125 C 2.90625 -7.796875 2.972656 -7.960938 3.015625 -8.078125 C 3.109375 -8.429688 3.363281 -8.609375 3.78125 -8.609375 C 4.113281 -8.609375 4.332031 -8.476562 4.4375 -8.21875 C 4.4375 -8.21875 4.46875 -8.160156 4.53125 -8.046875 C 4.59375 -7.929688 4.675781 -7.78125 4.78125 -7.59375 C 4.882812 -7.414062 5 -7.21875 5.125 -7 C 5.25 -6.78125 5.363281 -6.570312 5.46875 -6.375 C 5.570312 -6.175781 5.660156 -6 5.734375 -5.84375 C 5.816406 -5.6875 5.863281 -5.582031 5.875 -5.53125 C 5.957031 -5.332031 6.0625 -5.101562 6.1875 -4.84375 C 6.320312 -4.582031 6.476562 -4.289062 6.65625 -3.96875 C 6.757812 -3.832031 6.859375 -3.648438 6.953125 -3.421875 C 7.046875 -3.191406 7.128906 -2.957031 7.203125 -2.71875 C 7.273438 -2.488281 7.335938 -2.273438 7.390625 -2.078125 C 7.441406 -1.890625 7.488281 -1.765625 7.53125 -1.703125 C 7.53125 -1.617188 7.554688 -1.5 7.609375 -1.34375 C 7.660156 -1.195312 7.707031 -1.035156 7.75 -0.859375 C 7.800781 -0.691406 7.847656 -0.53125 7.890625 -0.375 C 7.929688 -0.226562 7.953125 -0.125 7.953125 -0.0625 C 7.953125 -0.0078125 7.941406 0.0546875 7.921875 0.140625 Z M 5.125 -3.890625 C 5.03125 -4.140625 4.945312 -4.351562 4.875 -4.53125 C 4.8125 -4.71875 4.734375 -4.898438 4.640625 -5.078125 C 4.554688 -5.265625 4.453125 -5.472656 4.328125 -5.703125 C 4.210938 -5.929688 4.066406 -6.226562 3.890625 -6.59375 C 3.640625 -6.144531 3.460938 -5.628906 3.359375 -5.046875 C 3.140625 -4.609375 2.976562 -4.140625 2.875 -3.640625 C 3.207031 -3.742188 3.476562 -3.796875 3.6875 -3.796875 C 3.757812 -3.796875 3.8125 -3.789062 3.84375 -3.78125 C 4.019531 -3.820312 4.234375 -3.84375 4.484375 -3.84375 C 4.742188 -3.84375 4.957031 -3.859375 5.125 -3.890625 Z M 5.125 -3.890625 "/></g></g></g><g fill="#ffbd59" fill-opacity="1"><g transform="translate(221.530018, 280.957424)"><g><path d="M 6.921875 -3.234375 C 6.910156 -2.910156 6.898438 -2.65625 6.890625 -2.46875 C 6.878906 -2.28125 6.863281 -2.125 6.84375 -2 C 6.832031 -1.882812 6.804688 -1.773438 6.765625 -1.671875 C 6.734375 -1.578125 6.6875 -1.460938 6.625 -1.328125 C 6.394531 -0.816406 6.046875 -0.421875 5.578125 -0.140625 C 5.109375 0.128906 4.515625 0.265625 3.796875 0.265625 C 3.535156 0.265625 3.328125 0.265625 3.171875 0.265625 C 3.023438 0.265625 2.863281 0.238281 2.6875 0.1875 C 2.519531 0.132812 2.300781 0.046875 2.03125 -0.078125 C 1.757812 -0.210938 1.378906 -0.410156 0.890625 -0.671875 C 0.503906 -0.867188 0.3125 -1.125 0.3125 -1.4375 C 0.3125 -1.632812 0.375 -1.804688 0.5 -1.953125 C 0.632812 -2.109375 0.804688 -2.195312 1.015625 -2.21875 C 1.773438 -1.976562 2.300781 -1.722656 2.59375 -1.453125 C 2.976562 -1.285156 3.441406 -1.203125 3.984375 -1.203125 C 4.441406 -1.203125 4.8125 -1.332031 5.09375 -1.59375 C 5.132812 -1.71875 5.175781 -1.882812 5.21875 -2.09375 C 5.269531 -2.3125 5.296875 -2.566406 5.296875 -2.859375 C 5.296875 -3.097656 5.222656 -3.296875 5.078125 -3.453125 C 4.941406 -3.609375 4.765625 -3.742188 4.546875 -3.859375 C 4.335938 -3.972656 4.101562 -4.078125 3.84375 -4.171875 C 3.582031 -4.265625 3.335938 -4.367188 3.109375 -4.484375 C 2.921875 -4.554688 2.734375 -4.640625 2.546875 -4.734375 C 2.367188 -4.828125 2.191406 -4.953125 2.015625 -5.109375 C 1.554688 -5.878906 1.328125 -6.425781 1.328125 -6.75 C 1.328125 -7.550781 1.800781 -8.316406 2.75 -9.046875 C 3.632812 -9.367188 4.238281 -9.53125 4.5625 -9.53125 C 4.675781 -9.53125 4.828125 -9.488281 5.015625 -9.40625 C 5.210938 -9.320312 5.40625 -9.210938 5.59375 -9.078125 C 5.78125 -8.953125 5.9375 -8.8125 6.0625 -8.65625 C 6.195312 -8.507812 6.265625 -8.359375 6.265625 -8.203125 C 6.265625 -8.023438 6.191406 -7.867188 6.046875 -7.734375 C 5.910156 -7.597656 5.726562 -7.53125 5.5 -7.53125 C 5.476562 -7.53125 5.421875 -7.5625 5.328125 -7.625 C 5.234375 -7.695312 5.117188 -7.769531 4.984375 -7.84375 C 4.847656 -7.914062 4.710938 -7.984375 4.578125 -8.046875 C 4.453125 -8.109375 4.34375 -8.140625 4.25 -8.140625 C 4.070312 -8.140625 3.898438 -8.097656 3.734375 -8.015625 C 3.566406 -7.929688 3.421875 -7.820312 3.296875 -7.6875 C 3.171875 -7.5625 3.066406 -7.421875 2.984375 -7.265625 C 2.910156 -7.117188 2.875 -6.976562 2.875 -6.84375 C 2.875 -6.601562 2.945312 -6.382812 3.09375 -6.1875 C 3.25 -6 3.429688 -5.847656 3.640625 -5.734375 L 4.65625 -5.375 C 4.914062 -5.28125 5.164062 -5.15625 5.40625 -5 C 5.65625 -4.851562 5.878906 -4.6875 6.078125 -4.5 C 6.285156 -4.3125 6.460938 -4.109375 6.609375 -3.890625 C 6.753906 -3.671875 6.859375 -3.453125 6.921875 -3.234375 Z M 6.921875 -3.234375 "/></g></g></g><g fill="#ffbd59" fill-opacity="1"><g transform="translate(230.136049, 280.957424)"><g><path d="M 6.921875 -3.234375 C 6.910156 -2.910156 6.898438 -2.65625 6.890625 -2.46875 C 6.878906 -2.28125 6.863281 -2.125 6.84375 -2 C 6.832031 -1.882812 6.804688 -1.773438 6.765625 -1.671875 C 6.734375 -1.578125 6.6875 -1.460938 6.625 -1.328125 C 6.394531 -0.816406 6.046875 -0.421875 5.578125 -0.140625 C 5.109375 0.128906 4.515625 0.265625 3.796875 0.265625 C 3.535156 0.265625 3.328125 0.265625 3.171875 0.265625 C 3.023438 0.265625 2.863281 0.238281 2.6875 0.1875 C 2.519531 0.132812 2.300781 0.046875 2.03125 -0.078125 C 1.757812 -0.210938 1.378906 -0.410156 0.890625 -0.671875 C 0.503906 -0.867188 0.3125 -1.125 0.3125 -1.4375 C 0.3125 -1.632812 0.375 -1.804688 0.5 -1.953125 C 0.632812 -2.109375 0.804688 -2.195312 1.015625 -2.21875 C 1.773438 -1.976562 2.300781 -1.722656 2.59375 -1.453125 C 2.976562 -1.285156 3.441406 -1.203125 3.984375 -1.203125 C 4.441406 -1.203125 4.8125 -1.332031 5.09375 -1.59375 C 5.132812 -1.71875 5.175781 -1.882812 5.21875 -2.09375 C 5.269531 -2.3125 5.296875 -2.566406 5.296875 -2.859375 C 5.296875 -3.097656 5.222656 -3.296875 5.078125 -3.453125 C 4.941406 -3.609375 4.765625 -3.742188 4.546875 -3.859375 C 4.335938 -3.972656 4.101562 -4.078125 3.84375 -4.171875 C 3.582031 -4.265625 3.335938 -4.367188 3.109375 -4.484375 C 2.921875 -4.554688 2.734375 -4.640625 2.546875 -4.734375 C 2.367188 -4.828125 2.191406 -4.953125 2.015625 -5.109375 C 1.554688 -5.878906 1.328125 -6.425781 1.328125 -6.75 C 1.328125 -7.550781 1.800781 -8.316406 2.75 -9.046875 C 3.632812 -9.367188 4.238281 -9.53125 4.5625 -9.53125 C 4.675781 -9.53125 4.828125 -9.488281 5.015625 -9.40625 C 5.210938 -9.320312 5.40625 -9.210938 5.59375 -9.078125 C 5.78125 -8.953125 5.9375 -8.8125 6.0625 -8.65625 C 6.195312 -8.507812 6.265625 -8.359375 6.265625 -8.203125 C 6.265625 -8.023438 6.191406 -7.867188 6.046875 -7.734375 C 5.910156 -7.597656 5.726562 -7.53125 5.5 -7.53125 C 5.476562 -7.53125 5.421875 -7.5625 5.328125 -7.625 C 5.234375 -7.695312 5.117188 -7.769531 4.984375 -7.84375 C 4.847656 -7.914062 4.710938 -7.984375 4.578125 -8.046875 C 4.453125 -8.109375 4.34375 -8.140625 4.25 -8.140625 C 4.070312 -8.140625 3.898438 -8.097656 3.734375 -8.015625 C 3.566406 -7.929688 3.421875 -7.820312 3.296875 -7.6875 C 3.171875 -7.5625 3.066406 -7.421875 2.984375 -7.265625 C 2.910156 -7.117188 2.875 -6.976562 2.875 -6.84375 C 2.875 -6.601562 2.945312 -6.382812 3.09375 -6.1875 C 3.25 -6 3.429688 -5.847656 3.640625 -5.734375 L 4.65625 -5.375 C 4.914062 -5.28125 5.164062 -5.15625 5.40625 -5 C 5.65625 -4.851562 5.878906 -4.6875 6.078125 -4.5 C 6.285156 -4.3125 6.460938 -4.109375 6.609375 -3.890625 C 6.753906 -3.671875 6.859375 -3.453125 6.921875 -3.234375 Z M 6.921875 -3.234375 "/></g></g></g></svg>